<svg xmlns="http://www.w3.org/2000/svg" width="1200" height="760" viewBox="0 0 1200 760"><defs><style>.bg{fill:#06111f}.panel{fill:#0c1c36;stroke:rgba(201,168,76,.22);stroke-width:1}.badge{fill:rgba(201,168,76,.10);stroke:rgba(201,168,76,.28);stroke-width:1}.title{fill:#fff;font:800 30px Inter,Arial,sans-serif;letter-spacing:0}.sub{fill:#8eb1ce;font:500 16px Inter,Arial,sans-serif;letter-spacing:0}.label{fill:#fff;font:800 18px Inter,Arial,sans-serif;letter-spacing:0}.note{fill:#8eb1ce;font:500 13px Inter,Arial,sans-serif;letter-spacing:0}.icon-label{fill:#8eb1ce;font:700 12px Inter,Arial,sans-serif;letter-spacing:0;text-anchor:middle}.choice{fill:#c9a84c;font:900 16px Inter,Arial,sans-serif;letter-spacing:0}</style></defs><rect class="bg" width="1200" height="760"/><rect x="40" y="32" width="1120" height="696" rx="24" fill="#071421" stroke="rgba(201,168,76,.16)"/><text x="72" y="82" class="title">More professional icon package options</text><text x="72" y="112" class="sub">These can be used through the installed react-icons package, or we can install their dedicated package where available.</text><g transform="translate(72 152)"><rect class="panel" width="1056" height="118" rx="18"/><text x="24" y="36" class="choice">D</text><text x="54" y="36" class="label">Phosphor</text><text x="54" y="60" class="note">Soft, premium, and fintech-friendly. Great if you want a polished app feel.</text><g transform="translate(40 74)"><g transform="translate(0 0)"><rect class="badge" width="76" height="38" rx="11"/><g transform="translate(23 5)"><svg stroke="currentColor" fill="currentColor" stroke-width="0" viewBox="0 0 256 256" color="#C9A84C" style="color:#C9A84C" height="29" width="29" xmlns="http://www.w3.org/2000/svg"><path d="M128,24A104,104,0,1,0,232,128,104.11,104.11,0,0,0,128,24Zm0,192a88,88,0,1,1,88-88A88.1,88.1,0,0,1,128,216Zm37.66-85.66a8,8,0,0,1,0,11.32l-32,32a8,8,0,0,1-11.32,0l-32-32a8,8,0,0,1,11.32-11.32L120,148.69V88a8,8,0,0,1,16,0v60.69l18.34-18.35A8,8,0,0,1,165.66,130.34Z"></path></svg></g><text class="icon-label" x="38" y="57">Deposit</text></g><g transform="translate(122 0)"><rect class="badge" width="76" height="38" rx="11"/><g transform="translate(23 5)"><svg stroke="currentColor" fill="currentColor" stroke-width="0" viewBox="0 0 256 256" color="#C9A84C" style="color:#C9A84C" height="29" width="29" xmlns="http://www.w3.org/2000/svg"><path d="M128,24A104,104,0,1,0,232,128,104.11,104.11,0,0,0,128,24Zm0,192a88,88,0,1,1,88-88A88.1,88.1,0,0,1,128,216Zm37.66-101.66a8,8,0,0,1-11.32,11.32L136,107.31V168a8,8,0,0,1-16,0V107.31l-18.34,18.35a8,8,0,0,1-11.32-11.32l32-32a8,8,0,0,1,11.32,0Z"></path></svg></g><text class="icon-label" x="38" y="57">Receive</text></g><g transform="translate(244 0)"><rect class="badge" width="76" height="38" rx="11"/><g transform="translate(23 5)"><svg stroke="currentColor" fill="currentColor" stroke-width="0" viewBox="0 0 256 256" color="#C9A84C" style="color:#C9A84C" height="29" width="29" xmlns="http://www.w3.org/2000/svg"><path d="M165.66,90.34a8,8,0,0,1,0,11.32l-64,64a8,8,0,0,1-11.32-11.32l64-64A8,8,0,0,1,165.66,90.34ZM215.6,40.4a56,56,0,0,0-79.2,0L106.34,70.45a8,8,0,0,0,11.32,11.32l30.06-30a40,40,0,0,1,56.57,56.56l-30.07,30.06a8,8,0,0,0,11.31,11.32L215.6,119.6a56,56,0,0,0,0-79.2ZM138.34,174.22l-30.06,30.06a40,40,0,1,1-56.56-56.57l30.05-30.05a8,8,0,0,0-11.32-11.32L40.4,136.4a56,56,0,0,0,79.2,79.2l30.06-30.07a8,8,0,0,0-11.32-11.31Z"></path></svg></g><text class="icon-label" x="38" y="57">Link</text></g><g transform="translate(366 0)"><rect class="badge" width="76" height="38" rx="11"/><g transform="translate(23 5)"><svg stroke="currentColor" fill="currentColor" stroke-width="0" viewBox="0 0 256 256" color="#C9A84C" style="color:#C9A84C" height="29" width="29" xmlns="http://www.w3.org/2000/svg"><path d="M225.86,102.82c-3.77-3.94-7.67-8-9.14-11.57-1.36-3.27-1.44-8.69-1.52-13.94-.15-9.76-.31-20.82-8-28.51s-18.75-7.85-28.51-8c-5.25-.08-10.67-.16-13.94-1.52-3.56-1.47-7.63-5.37-11.57-9.14C146.28,23.51,138.44,16,128,16s-18.27,7.51-25.18,14.14c-3.94,3.77-8,7.67-11.57,9.14C88,40.64,82.56,40.72,77.31,40.8c-9.76.15-20.82.31-28.51,8S41,67.55,40.8,77.31c-.08,5.25-.16,10.67-1.52,13.94-1.47,3.56-5.37,7.63-9.14,11.57C23.51,109.72,16,117.56,16,128s7.51,18.27,14.14,25.18c3.77,3.94,7.67,8,9.14,11.57,1.36,3.27,1.44,8.69,1.52,13.94.15,9.76.31,20.82,8,28.51s18.75,7.85,28.51,8c5.25.08,10.67.16,13.94,1.52,3.56,1.47,7.63,5.37,11.57,9.14C109.72,232.49,117.56,240,128,240s18.27-7.51,25.18-14.14c3.94-3.77,8-7.67,11.57-9.14,3.27-1.36,8.69-1.44,13.94-1.52,9.76-.15,20.82-.31,28.51-8s7.85-18.75,8-28.51c.08-5.25.16-10.67,1.52-13.94,1.47-3.56,5.37-7.63,9.14-11.57C232.49,146.28,240,138.44,240,128S232.49,109.73,225.86,102.82Zm-11.55,39.29c-4.79,5-9.75,10.17-12.38,16.52-2.52,6.1-2.63,13.07-2.73,19.82-.1,7-.21,14.33-3.32,17.43s-10.39,3.22-17.43,3.32c-6.75.1-13.72.21-19.82,2.73-6.35,2.63-11.52,7.59-16.52,12.38S132,224,128,224s-9.15-4.92-14.11-9.69-10.17-9.75-16.52-12.38c-6.1-2.52-13.07-2.63-19.82-2.73-7-.1-14.33-.21-17.43-3.32s-3.22-10.39-3.32-17.43c-.1-6.75-.21-13.72-2.73-19.82-2.63-6.35-7.59-11.52-12.38-16.52S32,132,32,128s4.92-9.15,9.69-14.11,9.75-10.17,12.38-16.52c2.52-6.1,2.63-13.07,2.73-19.82.1-7,.21-14.33,3.32-17.43S70.51,56.9,77.55,56.8c6.75-.1,13.72-.21,19.82-2.73,6.35-2.63,11.52-7.59,16.52-12.38S124,32,128,32s9.15,4.92,14.11,9.69,10.17,9.75,16.52,12.38c6.1,2.52,13.07,2.63,19.82,2.73,7,.1,14.33.21,17.43,3.32s3.22,10.39,3.32,17.43c.1,6.75.21,13.72,2.73,19.82,2.63,6.35,7.59,11.52,12.38,16.52S224,124,224,128,219.08,137.15,214.31,142.11ZM173.66,98.34a8,8,0,0,1,0,11.32l-56,56a8,8,0,0,1-11.32,0l-24-24a8,8,0,0,1,11.32-11.32L112,148.69l50.34-50.35A8,8,0,0,1,173.66,98.34Z"></path></svg></g><text class="icon-label" x="38" y="57">Verify</text></g><g transform="translate(488 0)"><rect class="badge" width="76" height="38" rx="11"/><g transform="translate(23 5)"><svg stroke="currentColor" fill="currentColor" stroke-width="0" viewBox="0 0 256 256" color="#C9A84C" style="color:#C9A84C" height="29" width="29" xmlns="http://www.w3.org/2000/svg"><path d="M248,208h-8V128a16,16,0,0,0-16-16H168V48a16,16,0,0,0-16-16H56A16,16,0,0,0,40,48V208H32a8,8,0,0,0,0,16H248a8,8,0,0,0,0-16Zm-24-80v80H168V128ZM56,48h96V208H136V160a8,8,0,0,0-8-8H80a8,8,0,0,0-8,8v48H56Zm64,160H88V168h32ZM72,96a8,8,0,0,1,8-8H96V72a8,8,0,0,1,16,0V88h16a8,8,0,0,1,0,16H112v16a8,8,0,0,1-16,0V104H80A8,8,0,0,1,72,96Z"></path></svg></g><text class="icon-label" x="38" y="57">Medbed</text></g><g transform="translate(610 0)"><rect class="badge" width="76" height="38" rx="11"/><g transform="translate(23 5)"><svg stroke="currentColor" fill="currentColor" stroke-width="0" viewBox="0 0 256 256" color="#C9A84C" style="color:#C9A84C" height="29" width="29" xmlns="http://www.w3.org/2000/svg"><path d="M178.48,115.7A44,44,0,0,0,152,40.19V24a8,8,0,0,0-16,0V40H120V24a8,8,0,0,0-16,0V40H72a8,8,0,0,0,0,16h8V192H72a8,8,0,0,0,0,16h32v16a8,8,0,0,0,16,0V208h16v16a8,8,0,0,0,16,0V208h8a48,48,0,0,0,18.48-92.3ZM176,84a28,28,0,0,1-28,28H96V56h52A28,28,0,0,1,176,84ZM160,192H96V128h64a32,32,0,0,1,0,64Z"></path></svg></g><text class="icon-label" x="38" y="57">Buy</text></g><g transform="translate(732 0)"><rect class="badge" width="76" height="38" rx="11"/><g transform="translate(23 5)"><svg stroke="currentColor" fill="currentColor" stroke-width="0" viewBox="0 0 256 256" color="#C9A84C" style="color:#C9A84C" height="29" width="29" xmlns="http://www.w3.org/2000/svg"><path d="M184,89.57V84c0-25.08-37.83-44-88-44S8,58.92,8,84v40c0,20.89,26.25,37.49,64,42.46V172c0,25.08,37.83,44,88,44s88-18.92,88-44V132C248,111.3,222.58,94.68,184,89.57ZM232,132c0,13.22-30.79,28-72,28-3.73,0-7.43-.13-11.08-.37C170.49,151.77,184,139,184,124V105.74C213.87,110.19,232,122.27,232,132ZM72,150.25V126.46A183.74,183.74,0,0,0,96,128a183.74,183.74,0,0,0,24-1.54v23.79A163,163,0,0,1,96,152,163,163,0,0,1,72,150.25Zm96-40.32V124c0,8.39-12.41,17.4-32,22.87V123.5C148.91,120.37,159.84,115.71,168,109.93ZM96,56c41.21,0,72,14.78,72,28s-30.79,28-72,28S24,97.22,24,84,54.79,56,96,56ZM24,124V109.93c8.16,5.78,19.09,10.44,32,13.57v23.37C36.41,141.4,24,132.39,24,124Zm64,48v-4.17c2.63.1,5.29.17,8,.17,3.88,0,7.67-.13,11.39-.35A121.92,121.92,0,0,0,120,171.41v23.46C100.41,189.4,88,180.39,88,172Zm48,26.25V174.4a179.48,179.48,0,0,0,24,1.6,183.74,183.74,0,0,0,24-1.54v23.79a165.45,165.45,0,0,1-48,0Zm64-3.38V171.5c12.91-3.13,23.84-7.79,32-13.57V172C232,180.39,219.59,189.4,200,194.87Z"></path></svg></g><text class="icon-label" x="38" y="57">Staking</text></g><g transform="translate(854 0)"><rect class="badge" width="76" height="38" rx="11"/><g transform="translate(23 5)"><svg stroke="currentColor" fill="currentColor" stroke-width="0" viewBox="0 0 256 256" color="#C9A84C" style="color:#C9A84C" height="29" width="29" xmlns="http://www.w3.org/2000/svg"><path d="M224,48H32A16,16,0,0,0,16,64V192a16,16,0,0,0,16,16H224a16,16,0,0,0,16-16V64A16,16,0,0,0,224,48Zm0,16V88H32V64Zm0,128H32V104H224v88Zm-16-24a8,8,0,0,1-8,8H168a8,8,0,0,1,0-16h32A8,8,0,0,1,208,168Zm-64,0a8,8,0,0,1-8,8H120a8,8,0,0,1,0-16h16A8,8,0,0,1,144,168Z"></path></svg></g><text class="icon-label" x="38" y="57">Card</text></g></g></g><g transform="translate(72 294)"><rect class="panel" width="1056" height="118" rx="18"/><text x="24" y="36" class="choice">E</text><text x="54" y="36" class="label">Tabler</text><text x="54" y="60" class="note">Sharp, technical, and very clean. Great for serious dashboards.</text><g transform="translate(40 74)"><g transform="translate(0 0)"><rect class="badge" width="76" height="38" rx="11"/><g transform="translate(23 5)"><svg stroke="currentColor" fill="none" stroke-width="2" viewBox="0 0 24 24" stroke-linecap="round" stroke-linejoin="round" color="#C9A84C" style="color:#C9A84C" height="29" width="29" xmlns="http://www.w3.org/2000/svg"><path d="M4 17v2a2 2 0 0 0 2 2h12a2 2 0 0 0 2 -2v-2"></path><path d="M7 11l5 5l5 -5"></path><path d="M12 4l0 12"></path></svg></g><text class="icon-label" x="38" y="57">Deposit</text></g><g transform="translate(122 0)"><rect class="badge" width="76" height="38" rx="11"/><g transform="translate(23 5)"><svg stroke="currentColor" fill="none" stroke-width="2" viewBox="0 0 24 24" stroke-linecap="round" stroke-linejoin="round" color="#C9A84C" style="color:#C9A84C" height="29" width="29" xmlns="http://www.w3.org/2000/svg"><path d="M4 17v2a2 2 0 0 0 2 2h12a2 2 0 0 0 2 -2v-2"></path><path d="M7 9l5 -5l5 5"></path><path d="M12 4l0 12"></path></svg></g><text class="icon-label" x="38" y="57">Receive</text></g><g transform="translate(244 0)"><rect class="badge" width="76" height="38" rx="11"/><g transform="translate(23 5)"><svg stroke="currentColor" fill="none" stroke-width="2" viewBox="0 0 24 24" stroke-linecap="round" stroke-linejoin="round" color="#C9A84C" style="color:#C9A84C" height="29" width="29" xmlns="http://www.w3.org/2000/svg"><path d="M9 15l6 -6"></path><path d="M11 6l.463 -.536a5 5 0 0 1 7.071 7.072l-.534 .464"></path><path d="M13 18l-.397 .534a5.068 5.068 0 0 1 -7.127 0a4.972 4.972 0 0 1 0 -7.071l.524 -.463"></path></svg></g><text class="icon-label" x="38" y="57">Link</text></g><g transform="translate(366 0)"><rect class="badge" width="76" height="38" rx="11"/><g transform="translate(23 5)"><svg stroke="currentColor" fill="none" stroke-width="2" viewBox="0 0 24 24" stroke-linecap="round" stroke-linejoin="round" color="#C9A84C" style="color:#C9A84C" height="29" width="29" xmlns="http://www.w3.org/2000/svg"><path d="M11.46 20.846a12 12 0 0 1 -7.96 -14.846a12 12 0 0 0 8.5 -3a12 12 0 0 0 8.5 3a12 12 0 0 1 -.09 7.06"></path><path d="M15 19l2 2l4 -4"></path></svg></g><text class="icon-label" x="38" y="57">Verify</text></g><g transform="translate(488 0)"><rect class="badge" width="76" height="38" rx="11"/><g transform="translate(23 5)"><svg stroke="currentColor" fill="none" stroke-width="2" viewBox="0 0 24 24" stroke-linecap="round" stroke-linejoin="round" color="#C9A84C" style="color:#C9A84C" height="29" width="29" xmlns="http://www.w3.org/2000/svg"><path d="M3 21l18 0"></path><path d="M5 21v-16a2 2 0 0 1 2 -2h10a2 2 0 0 1 2 2v16"></path><path d="M9 21v-4a2 2 0 0 1 2 -2h2a2 2 0 0 1 2 2v4"></path><path d="M10 9l4 0"></path><path d="M12 7l0 4"></path></svg></g><text class="icon-label" x="38" y="57">Medbed</text></g><g transform="translate(610 0)"><rect class="badge" width="76" height="38" rx="11"/><g transform="translate(23 5)"><svg stroke="currentColor" fill="none" stroke-width="2" viewBox="0 0 24 24" stroke-linecap="round" stroke-linejoin="round" color="#C9A84C" style="color:#C9A84C" height="29" width="29" xmlns="http://www.w3.org/2000/svg"><path d="M6 6h8a3 3 0 0 1 0 6a3 3 0 0 1 0 6h-8"></path><path d="M8 6l0 12"></path><path d="M8 12l6 0"></path><path d="M9 3l0 3"></path><path d="M13 3l0 3"></path><path d="M9 18l0 3"></path><path d="M13 18l0 3"></path></svg></g><text class="icon-label" x="38" y="57">Buy</text></g><g transform="translate(732 0)"><rect class="badge" width="76" height="38" rx="11"/><g transform="translate(23 5)"><svg stroke="currentColor" fill="none" stroke-width="2" viewBox="0 0 24 24" stroke-linecap="round" stroke-linejoin="round" color="#C9A84C" style="color:#C9A84C" height="29" width="29" xmlns="http://www.w3.org/2000/svg"><path d="M9 14c0 1.657 2.686 3 6 3s6 -1.343 6 -3s-2.686 -3 -6 -3s-6 1.343 -6 3z"></path><path d="M9 14v4c0 1.656 2.686 3 6 3s6 -1.344 6 -3v-4"></path><path d="M3 6c0 1.072 1.144 2.062 3 2.598s4.144 .536 6 0c1.856 -.536 3 -1.526 3 -2.598c0 -1.072 -1.144 -2.062 -3 -2.598s-4.144 -.536 -6 0c-1.856 .536 -3 1.526 -3 2.598z"></path><path d="M3 6v10c0 .888 .772 1.45 2 2"></path><path d="M3 11c0 .888 .772 1.45 2 2"></path></svg></g><text class="icon-label" x="38" y="57">Staking</text></g><g transform="translate(854 0)"><rect class="badge" width="76" height="38" rx="11"/><g transform="translate(23 5)"><svg stroke="currentColor" fill="none" stroke-width="2" viewBox="0 0 24 24" stroke-linecap="round" stroke-linejoin="round" color="#C9A84C" style="color:#C9A84C" height="29" width="29" xmlns="http://www.w3.org/2000/svg"><path d="M3 5m0 3a3 3 0 0 1 3 -3h12a3 3 0 0 1 3 3v8a3 3 0 0 1 -3 3h-12a3 3 0 0 1 -3 -3z"></path><path d="M3 10l18 0"></path><path d="M7 15l.01 0"></path><path d="M11 15l2 0"></path></svg></g><text class="icon-label" x="38" y="57">Card</text></g></g></g><g transform="translate(72 436)"><rect class="panel" width="1056" height="118" rx="18"/><text x="24" y="36" class="choice">F</text><text x="54" y="36" class="label">Remix Icon</text><text x="54" y="60" class="note">Balanced and product-like. Slightly bolder than Lucide without feeling heavy.</text><g transform="translate(40 74)"><g transform="translate(0 0)"><rect class="badge" width="76" height="38" rx="11"/><g transform="translate(23 5)"><svg stroke="currentColor" fill="currentColor" stroke-width="0" viewBox="0 0 24 24" color="#C9A84C" style="color:#C9A84C" height="29" width="29" xmlns="http://www.w3.org/2000/svg"><path d="M13 10H18L12 16L6 10H11V3H13V10ZM4 19H20V12H22V20C22 20.5523 21.5523 21 21 21H3C2.44772 21 2 20.5523 2 20V12H4V19Z"></path></svg></g><text class="icon-label" x="38" y="57">Deposit</text></g><g transform="translate(122 0)"><rect class="badge" width="76" height="38" rx="11"/><g transform="translate(23 5)"><svg stroke="currentColor" fill="currentColor" stroke-width="0" viewBox="0 0 24 24" color="#C9A84C" style="color:#C9A84C" height="29" width="29" xmlns="http://www.w3.org/2000/svg"><path d="M4 19H20V12H22V20C22 20.5523 21.5523 21 21 21H3C2.44772 21 2 20.5523 2 20V12H4V19ZM13 9V16H11V9H6L12 3L18 9H13Z"></path></svg></g><text class="icon-label" x="38" y="57">Receive</text></g><g transform="translate(244 0)"><rect class="badge" width="76" height="38" rx="11"/><g transform="translate(23 5)"><svg stroke="currentColor" fill="currentColor" stroke-width="0" viewBox="0 0 24 24" color="#C9A84C" style="color:#C9A84C" height="29" width="29" xmlns="http://www.w3.org/2000/svg"><path d="M18.3638 15.5355L16.9496 14.1213L18.3638 12.7071C20.3164 10.7545 20.3164 7.58866 18.3638 5.63604C16.4112 3.68341 13.2453 3.68341 11.2927 5.63604L9.87849 7.05025L8.46428 5.63604L9.87849 4.22182C12.6122 1.48815 17.0443 1.48815 19.778 4.22182C22.5117 6.95549 22.5117 11.3876 19.778 14.1213L18.3638 15.5355ZM15.5353 18.364L14.1211 19.7782C11.3875 22.5118 6.95531 22.5118 4.22164 19.7782C1.48797 17.0445 1.48797 12.6123 4.22164 9.87868L5.63585 8.46446L7.05007 9.87868L5.63585 11.2929C3.68323 13.2455 3.68323 16.4113 5.63585 18.364C7.58847 20.3166 10.7543 20.3166 12.7069 18.364L14.1211 16.9497L15.5353 18.364ZM14.8282 7.75736L16.2425 9.17157L9.17139 16.2426L7.75717 14.8284L14.8282 7.75736Z"></path></svg></g><text class="icon-label" x="38" y="57">Link</text></g><g transform="translate(366 0)"><rect class="badge" width="76" height="38" rx="11"/><g transform="translate(23 5)"><svg stroke="currentColor" fill="currentColor" stroke-width="0" viewBox="0 0 24 24" color="#C9A84C" style="color:#C9A84C" height="29" width="29" xmlns="http://www.w3.org/2000/svg"><path d="M12 1L20.2169 2.82598C20.6745 2.92766 21 3.33347 21 3.80217V13.7889C21 15.795 19.9974 17.6684 18.3282 18.7812L12 23L5.6718 18.7812C4.00261 17.6684 3 15.795 3 13.7889V3.80217C3 3.33347 3.32553 2.92766 3.78307 2.82598L12 1ZM12 3.04879L5 4.60434V13.7889C5 15.1263 5.6684 16.3752 6.7812 17.1171L12 20.5963L17.2188 17.1171C18.3316 16.3752 19 15.1263 19 13.7889V4.60434L12 3.04879ZM16.4524 8.22183L17.8666 9.63604L11.5026 16L7.25999 11.7574L8.67421 10.3431L11.5019 13.1709L16.4524 8.22183Z"></path></svg></g><text class="icon-label" x="38" y="57">Verify</text></g><g transform="translate(488 0)"><rect class="badge" width="76" height="38" rx="11"/><g transform="translate(23 5)"><svg stroke="currentColor" fill="currentColor" stroke-width="0" viewBox="0 0 24 24" color="#C9A84C" style="color:#C9A84C" height="29" width="29" xmlns="http://www.w3.org/2000/svg"><path d="M8 20V14H16V20H19V4H5V20H8ZM10 20H14V16H10V20ZM21 20H23V22H1V20H3V3C3 2.44772 3.44772 2 4 2H20C20.5523 2 21 2.44772 21 3V20ZM11 8V6H13V8H15V10H13V12H11V10H9V8H11Z"></path></svg></g><text class="icon-label" x="38" y="57">Medbed</text></g><g transform="translate(610 0)"><rect class="badge" width="76" height="38" rx="11"/><g transform="translate(23 5)"><svg stroke="currentColor" fill="currentColor" stroke-width="0" viewBox="0 0 24 24" color="#C9A84C" style="color:#C9A84C" height="29" width="29" xmlns="http://www.w3.org/2000/svg"><path d="M20 12C20 7.58172 16.4183 4 12 4C7.58172 4 4 7.58172 4 12C4 16.4183 7.58172 20 12 20C16.4183 20 20 16.4183 20 12ZM22 12C22 17.5228 17.5228 22 12 22C6.47715 22 2 17.5228 2 12C2 6.47715 6.47715 2 12 2C17.5228 2 22 6.47715 22 12ZM16.7055 10.564C16.5323 11.6168 15.9806 12.1314 15.235 12.313C16.2271 12.8683 16.7046 13.7112 16.1938 15.1897C15.5586 17.044 14.1367 17.2122 12.2533 16.853L11.7684 18.81L10.6741 18.5388L11.159 16.5818C10.8606 16.5023 10.5571 16.4442 10.2602 16.359L9.77531 18.3161L8.683 18.0454L9.16786 16.0883L6.99194 15.4957L7.53278 14.1119C7.53278 14.1119 8.35407 14.3378 8.34133 14.3236C8.64595 14.3977 8.79489 14.1849 8.85591 14.0359L9.63237 10.8985L10.1975 8.66859C10.2219 8.42756 10.1464 8.11223 9.7013 7.99226C9.7316 7.97451 8.90007 7.7937 8.90007 7.7937L9.2241 6.48228L11.4667 7.03806L11.9416 5.12109L13.0714 5.40109L12.5965 7.31806C12.8882 7.38151 13.1711 7.45862 13.4625 7.53269L13.9374 5.61571L15.0367 5.88814L14.5493 7.85537C15.9358 8.36407 16.9345 9.11777 16.7055 10.564ZM11.6062 10.9543C12.2632 11.1517 14.2111 11.7371 14.5393 10.4337C14.8448 9.19469 13.1568 8.81617 12.3726 8.64033C12.2802 8.61959 12.2003 8.60168 12.1377 8.5855L11.5514 10.9378L11.6062 10.9543ZM10.5917 14.7743L10.6869 14.8025C11.4963 15.0433 13.793 15.7264 14.1045 14.4327C14.4254 13.1868 12.3607 12.7016 11.4363 12.4844C11.335 12.4606 11.2473 12.44 11.1781 12.422L10.5917 14.7743Z"></path></svg></g><text class="icon-label" x="38" y="57">Buy</text></g><g transform="translate(732 0)"><rect class="badge" width="76" height="38" rx="11"/><g transform="translate(23 5)"><svg stroke="currentColor" fill="currentColor" stroke-width="0" viewBox="0 0 24 24" color="#C9A84C" style="color:#C9A84C" height="29" width="29" xmlns="http://www.w3.org/2000/svg"><path d="M14.0049 2.00281C18.4232 2.00281 22.0049 5.58453 22.0049 10.0028C22.0049 13.2474 20.0733 16.0409 17.2973 17.296C16.0422 20.0718 13.249 22.0028 10.0049 22.0028C5.5866 22.0028 2.00488 18.4211 2.00488 14.0028C2.00488 10.7587 3.9359 7.96554 6.71122 6.71012C7.96681 3.93438 10.7603 2.00281 14.0049 2.00281ZM10.0049 8.00281C6.69117 8.00281 4.00488 10.6891 4.00488 14.0028C4.00488 17.3165 6.69117 20.0028 10.0049 20.0028C13.3186 20.0028 16.0049 17.3165 16.0049 14.0028C16.0049 10.6891 13.3186 8.00281 10.0049 8.00281ZM11.0049 9.00281V10.0028H13.0049V12.0028H9.00488C8.72874 12.0028 8.50488 12.2267 8.50488 12.5028C8.50488 12.7483 8.68176 12.9524 8.91501 12.9948L9.00488 13.0028H11.0049C12.3856 13.0028 13.5049 14.1221 13.5049 15.5028C13.5049 16.8835 12.3856 18.0028 11.0049 18.0028V19.0028H9.00488V18.0028H7.00488V16.0028H11.0049C11.281 16.0028 11.5049 15.7789 11.5049 15.5028C11.5049 15.2573 11.328 15.0532 11.0948 15.0109L11.0049 15.0028H9.00488C7.62417 15.0028 6.50488 13.8835 6.50488 12.5028C6.50488 11.1221 7.62417 10.0028 9.00488 10.0028V9.00281H11.0049ZM14.0049 4.00281C12.2214 4.00281 10.6196 4.78097 9.52064 6.01629C9.68133 6.00764 9.84254 6.00281 10.0049 6.00281C14.4232 6.00281 18.0049 9.58453 18.0049 14.0028C18.0049 14.1655 18 14.327 17.9905 14.4873C19.2265 13.3885 20.0049 11.7866 20.0049 10.0028C20.0049 6.6891 17.3186 4.00281 14.0049 4.00281Z"></path></svg></g><text class="icon-label" x="38" y="57">Staking</text></g><g transform="translate(854 0)"><rect class="badge" width="76" height="38" rx="11"/><g transform="translate(23 5)"><svg stroke="currentColor" fill="currentColor" stroke-width="0" viewBox="0 0 24 24" color="#C9A84C" style="color:#C9A84C" height="29" width="29" xmlns="http://www.w3.org/2000/svg"><path d="M3.00488 2.99979H21.0049C21.5572 2.99979 22.0049 3.4475 22.0049 3.99979V19.9998C22.0049 20.5521 21.5572 20.9998 21.0049 20.9998H3.00488C2.4526 20.9998 2.00488 20.5521 2.00488 19.9998V3.99979C2.00488 3.4475 2.4526 2.99979 3.00488 2.99979ZM20.0049 10.9998H4.00488V18.9998H20.0049V10.9998ZM20.0049 8.99979V4.99979H4.00488V8.99979H20.0049ZM14.0049 14.9998H18.0049V16.9998H14.0049V14.9998Z"></path></svg></g><text class="icon-label" x="38" y="57">Card</text></g></g></g><g transform="translate(72 578)"><rect class="panel" width="1056" height="118" rx="18"/><text x="24" y="36" class="choice">G</text><text x="54" y="36" class="label">Bootstrap Icons</text><text x="54" y="60" class="note">Simple and familiar. Good, but a little less premium than Phosphor or Tabler.</text><g transform="translate(40 74)"><g transform="translate(0 0)"><rect class="badge" width="76" height="38" rx="11"/><g transform="translate(23 5)"><svg stroke="currentColor" fill="currentColor" stroke-width="0" viewBox="0 0 16 16" color="#C9A84C" style="color:#C9A84C" height="29" width="29" xmlns="http://www.w3.org/2000/svg"><path fill-rule="evenodd" d="M1 8a7 7 0 1 0 14 0A7 7 0 0 0 1 8m15 0A8 8 0 1 1 0 8a8 8 0 0 1 16 0M8.5 4.5a.5.5 0 0 0-1 0v5.793L5.354 8.146a.5.5 0 1 0-.708.708l3 3a.5.5 0 0 0 .708 0l3-3a.5.5 0 0 0-.708-.708L8.5 10.293z"></path></svg></g><text class="icon-label" x="38" y="57">Deposit</text></g><g transform="translate(122 0)"><rect class="badge" width="76" height="38" rx="11"/><g transform="translate(23 5)"><svg stroke="currentColor" fill="currentColor" stroke-width="0" viewBox="0 0 16 16" color="#C9A84C" style="color:#C9A84C" height="29" width="29" xmlns="http://www.w3.org/2000/svg"><path fill-rule="evenodd" d="M1 8a7 7 0 1 0 14 0A7 7 0 0 0 1 8m15 0A8 8 0 1 1 0 8a8 8 0 0 1 16 0m-7.5 3.5a.5.5 0 0 1-1 0V5.707L5.354 7.854a.5.5 0 1 1-.708-.708l3-3a.5.5 0 0 1 .708 0l3 3a.5.5 0 0 1-.708.708L8.5 5.707z"></path></svg></g><text class="icon-label" x="38" y="57">Receive</text></g><g transform="translate(244 0)"><rect class="badge" width="76" height="38" rx="11"/><g transform="translate(23 5)"><svg stroke="currentColor" fill="currentColor" stroke-width="0" viewBox="0 0 16 16" color="#C9A84C" style="color:#C9A84C" height="29" width="29" xmlns="http://www.w3.org/2000/svg"><path d="M4.715 6.542 3.343 7.914a3 3 0 1 0 4.243 4.243l1.828-1.829A3 3 0 0 0 8.586 5.5L8 6.086a1 1 0 0 0-.154.199 2 2 0 0 1 .861 3.337L6.88 11.45a2 2 0 1 1-2.83-2.83l.793-.792a4 4 0 0 1-.128-1.287z"></path><path d="M6.586 4.672A3 3 0 0 0 7.414 9.5l.775-.776a2 2 0 0 1-.896-3.346L9.12 3.55a2 2 0 1 1 2.83 2.83l-.793.792c.112.42.155.855.128 1.287l1.372-1.372a3 3 0 1 0-4.243-4.243z"></path></svg></g><text class="icon-label" x="38" y="57">Link</text></g><g transform="translate(366 0)"><rect class="badge" width="76" height="38" rx="11"/><g transform="translate(23 5)"><svg stroke="currentColor" fill="currentColor" stroke-width="0" viewBox="0 0 16 16" color="#C9A84C" style="color:#C9A84C" height="29" width="29" xmlns="http://www.w3.org/2000/svg"><path d="M5.338 1.59a61 61 0 0 0-2.837.856.48.48 0 0 0-.328.39c-.554 4.157.726 7.19 2.253 9.188a10.7 10.7 0 0 0 2.287 2.233c.346.244.652.42.893.533q.18.085.293.118a1 1 0 0 0 .101.025 1 1 0 0 0 .1-.025q.114-.034.294-.118c.24-.113.547-.29.893-.533a10.7 10.7 0 0 0 2.287-2.233c1.527-1.997 2.807-5.031 2.253-9.188a.48.48 0 0 0-.328-.39c-.651-.213-1.75-.56-2.837-.855C9.552 1.29 8.531 1.067 8 1.067c-.53 0-1.552.223-2.662.524zM5.072.56C6.157.265 7.31 0 8 0s1.843.265 2.928.56c1.11.3 2.229.655 2.887.87a1.54 1.54 0 0 1 1.044 1.262c.596 4.477-.787 7.795-2.465 9.99a11.8 11.8 0 0 1-2.517 2.453 7 7 0 0 1-1.048.625c-.28.132-.581.24-.829.24s-.548-.108-.829-.24a7 7 0 0 1-1.048-.625 11.8 11.8 0 0 1-2.517-2.453C1.928 10.487.545 7.169 1.141 2.692A1.54 1.54 0 0 1 2.185 1.43 63 63 0 0 1 5.072.56"></path><path d="M10.854 5.146a.5.5 0 0 1 0 .708l-3 3a.5.5 0 0 1-.708 0l-1.5-1.5a.5.5 0 1 1 .708-.708L7.5 7.793l2.646-2.647a.5.5 0 0 1 .708 0"></path></svg></g><text class="icon-label" x="38" y="57">Verify</text></g><g transform="translate(488 0)"><rect class="badge" width="76" height="38" rx="11"/><g transform="translate(23 5)"><svg stroke="currentColor" fill="currentColor" stroke-width="0" viewBox="0 0 16 16" color="#C9A84C" style="color:#C9A84C" height="29" width="29" xmlns="http://www.w3.org/2000/svg"><path d="M8.5 5.034v1.1l.953-.55.5.867L9 7l.953.55-.5.866-.953-.55v1.1h-1v-1.1l-.953.55-.5-.866L7 7l-.953-.55.5-.866.953.55v-1.1zM13.25 9a.25.25 0 0 0-.25.25v.5c0 .138.112.25.25.25h.5a.25.25 0 0 0 .25-.25v-.5a.25.25 0 0 0-.25-.25zM13 11.25a.25.25 0 0 1 .25-.25h.5a.25.25 0 0 1 .25.25v.5a.25.25 0 0 1-.25.25h-.5a.25.25 0 0 1-.25-.25zm.25 1.75a.25.25 0 0 0-.25.25v.5c0 .138.112.25.25.25h.5a.25.25 0 0 0 .25-.25v-.5a.25.25 0 0 0-.25-.25zm-11-4a.25.25 0 0 0-.25.25v.5c0 .138.112.25.25.25h.5A.25.25 0 0 0 3 9.75v-.5A.25.25 0 0 0 2.75 9zm0 2a.25.25 0 0 0-.25.25v.5c0 .138.112.25.25.25h.5a.25.25 0 0 0 .25-.25v-.5a.25.25 0 0 0-.25-.25zM2 13.25a.25.25 0 0 1 .25-.25h.5a.25.25 0 0 1 .25.25v.5a.25.25 0 0 1-.25.25h-.5a.25.25 0 0 1-.25-.25z"></path><path d="M5 1a1 1 0 0 1 1-1h4a1 1 0 0 1 1 1v1a1 1 0 0 1 1 1v4h3a1 1 0 0 1 1 1v7a1 1 0 0 1-1 1H1a1 1 0 0 1-1-1V8a1 1 0 0 1 1-1h3V3a1 1 0 0 1 1-1zm2 14h2v-3H7zm3 0h1V3H5v12h1v-3a1 1 0 0 1 1-1h2a1 1 0 0 1 1 1zm0-14H6v1h4zm2 7v7h3V8zm-8 7V8H1v7z"></path></svg></g><text class="icon-label" x="38" y="57">Medbed</text></g><g transform="translate(610 0)"><rect class="badge" width="76" height="38" rx="11"/><g transform="translate(23 5)"><svg stroke="currentColor" fill="currentColor" stroke-width="0" viewBox="0 0 16 16" color="#C9A84C" style="color:#C9A84C" height="29" width="29" xmlns="http://www.w3.org/2000/svg"><path d="M5.5 13v1.25c0 .138.112.25.25.25h1a.25.25 0 0 0 .25-.25V13h.5v1.25c0 .138.112.25.25.25h1a.25.25 0 0 0 .25-.25V13h.084c1.992 0 3.416-1.033 3.416-2.82 0-1.502-1.007-2.323-2.186-2.44v-.088c.97-.242 1.683-.974 1.683-2.19C11.997 3.93 10.847 3 9.092 3H9V1.75a.25.25 0 0 0-.25-.25h-1a.25.25 0 0 0-.25.25V3h-.573V1.75a.25.25 0 0 0-.25-.25H5.75a.25.25 0 0 0-.25.25V3l-1.998.011a.25.25 0 0 0-.25.25v.989c0 .137.11.25.248.25l.755-.005a.75.75 0 0 1 .745.75v5.505a.75.75 0 0 1-.75.75l-.748.011a.25.25 0 0 0-.25.25v1c0 .138.112.25.25.25zm1.427-8.513h1.719c.906 0 1.438.498 1.438 1.312 0 .871-.575 1.362-1.877 1.362h-1.28zm0 4.051h1.84c1.137 0 1.756.58 1.756 1.524 0 .953-.626 1.45-2.158 1.45H6.927z"></path></svg></g><text class="icon-label" x="38" y="57">Buy</text></g><g transform="translate(732 0)"><rect class="badge" width="76" height="38" rx="11"/><g transform="translate(23 5)"><svg stroke="currentColor" fill="currentColor" stroke-width="0" viewBox="0 0 16 16" color="#C9A84C" style="color:#C9A84C" height="29" width="29" xmlns="http://www.w3.org/2000/svg"><path d="M1 3a1 1 0 0 1 1-1h12a1 1 0 0 1 1 1zm7 8a2 2 0 1 0 0-4 2 2 0 0 0 0 4"></path><path d="M0 5a1 1 0 0 1 1-1h14a1 1 0 0 1 1 1v8a1 1 0 0 1-1 1H1a1 1 0 0 1-1-1zm3 0a2 2 0 0 1-2 2v4a2 2 0 0 1 2 2h10a2 2 0 0 1 2-2V7a2 2 0 0 1-2-2z"></path></svg></g><text class="icon-label" x="38" y="57">Staking</text></g><g transform="translate(854 0)"><rect class="badge" width="76" height="38" rx="11"/><g transform="translate(23 5)"><svg stroke="currentColor" fill="currentColor" stroke-width="0" viewBox="0 0 16 16" color="#C9A84C" style="color:#C9A84C" height="29" width="29" xmlns="http://www.w3.org/2000/svg"><path d="M14 3a1 1 0 0 1 1 1v8a1 1 0 0 1-1 1H2a1 1 0 0 1-1-1V4a1 1 0 0 1 1-1zM2 2a2 2 0 0 0-2 2v8a2 2 0 0 0 2 2h12a2 2 0 0 0 2-2V4a2 2 0 0 0-2-2z"></path><path d="M2 5.5a.5.5 0 0 1 .5-.5h2a.5.5 0 0 1 .5.5v1a.5.5 0 0 1-.5.5h-2a.5.5 0 0 1-.5-.5zm0 3a.5.5 0 0 1 .5-.5h5a.5.5 0 0 1 0 1h-5a.5.5 0 0 1-.5-.5m0 2a.5.5 0 0 1 .5-.5h1a.5.5 0 0 1 0 1h-1a.5.5 0 0 1-.5-.5m3 0a.5.5 0 0 1 .5-.5h1a.5.5 0 0 1 0 1h-1a.5.5 0 0 1-.5-.5m3 0a.5.5 0 0 1 .5-.5h1a.5.5 0 0 1 0 1h-1a.5.5 0 0 1-.5-.5m3 0a.5.5 0 0 1 .5-.5h1a.5.5 0 0 1 0 1h-1a.5.5 0 0 1-.5-.5"></path></svg></g><text class="icon-label" x="38" y="57">Card</text></g></g></g></svg>