<svg xmlns="http://www.w3.org/2000/svg" width="1200" height="760" viewBox="0 0 1200 760">
  <defs>
    <style>
      .bg { fill: #06111f; }
      .panel { fill: #0c1c36; stroke: rgba(201,168,76,.22); stroke-width: 1; }
      .badge { fill: rgba(201,168,76,.10); stroke: rgba(201,168,76,.28); stroke-width: 1; }
      .gold { color: #c9a84c; stroke: currentColor; fill: none; }
      .gold-fill { color: #c9a84c; fill: currentColor; stroke: none; }
      .title { fill: #fff; font: 800 30px Inter, Arial, sans-serif; letter-spacing: 0; }
      .sub { fill: #8eb1ce; font: 500 16px Inter, Arial, sans-serif; letter-spacing: 0; }
      .label { fill: #ffffff; font: 800 18px Inter, Arial, sans-serif; letter-spacing: 0; }
      .note { fill: #8eb1ce; font: 500 13px Inter, Arial, sans-serif; letter-spacing: 0; }
      .icon-label { fill: #8eb1ce; font: 700 12px Inter, Arial, sans-serif; letter-spacing: 0; text-anchor: middle; }
      .choice { fill: #c9a84c; font: 900 16px Inter, Arial, sans-serif; letter-spacing: 0; }
    </style>

    <symbol id="lucide-download" viewBox="0 0 24 24">
      <path d="M12 15V3" stroke-width="2" stroke-linecap="round" stroke-linejoin="round"/>
      <path d="M21 15v4a2 2 0 0 1-2 2H5a2 2 0 0 1-2-2v-4" stroke-width="2" stroke-linecap="round" stroke-linejoin="round"/>
      <path d="m7 10 5 5 5-5" stroke-width="2" stroke-linecap="round" stroke-linejoin="round"/>
    </symbol>
    <symbol id="lucide-upload" viewBox="0 0 24 24">
      <path d="M12 3v12" stroke-width="2" stroke-linecap="round" stroke-linejoin="round"/>
      <path d="m17 8-5-5-5 5" stroke-width="2" stroke-linecap="round" stroke-linejoin="round"/>
      <path d="M21 15v4a2 2 0 0 1-2 2H5a2 2 0 0 1-2-2v-4" stroke-width="2" stroke-linecap="round" stroke-linejoin="round"/>
    </symbol>
    <symbol id="lucide-link" viewBox="0 0 24 24">
      <path d="M9 17H7A5 5 0 0 1 7 7h2" stroke-width="2" stroke-linecap="round" stroke-linejoin="round"/>
      <path d="M15 7h2a5 5 0 1 1 0 10h-2" stroke-width="2" stroke-linecap="round" stroke-linejoin="round"/>
      <line x1="8" x2="16" y1="12" y2="12" stroke-width="2" stroke-linecap="round"/>
    </symbol>
    <symbol id="lucide-badge-check" viewBox="0 0 24 24">
      <path d="M3.85 8.62a4 4 0 0 1 4.78-4.77 4 4 0 0 1 6.74 0 4 4 0 0 1 4.78 4.78 4 4 0 0 1 0 6.74 4 4 0 0 1-4.77 4.78 4 4 0 0 1-6.75 0 4 4 0 0 1-4.78-4.77 4 4 0 0 1 0-6.76Z" stroke-width="2" stroke-linecap="round" stroke-linejoin="round"/>
      <path d="m9 12 2 2 4-4" stroke-width="2" stroke-linecap="round" stroke-linejoin="round"/>
    </symbol>
    <symbol id="lucide-hospital" viewBox="0 0 24 24">
      <path d="M12 7v4" stroke-width="2" stroke-linecap="round" stroke-linejoin="round"/>
      <path d="M14 21v-3a2 2 0 0 0-4 0v3" stroke-width="2" stroke-linecap="round" stroke-linejoin="round"/>
      <path d="M14 9h-4" stroke-width="2" stroke-linecap="round" stroke-linejoin="round"/>
      <path d="M18 11h2a2 2 0 0 1 2 2v6a2 2 0 0 1-2 2H4a2 2 0 0 1-2-2v-9a2 2 0 0 1 2-2h2" stroke-width="2" stroke-linecap="round" stroke-linejoin="round"/>
      <path d="M18 21V5a2 2 0 0 0-2-2H8a2 2 0 0 0-2 2v16" stroke-width="2" stroke-linecap="round" stroke-linejoin="round"/>
    </symbol>
    <symbol id="lucide-dollar" viewBox="0 0 24 24">
      <path d="M3.85 8.62a4 4 0 0 1 4.78-4.77 4 4 0 0 1 6.74 0 4 4 0 0 1 4.78 4.78 4 4 0 0 1 0 6.74 4 4 0 0 1-4.77 4.78 4 4 0 0 1-6.75 0 4 4 0 0 1-4.78-4.77 4 4 0 0 1 0-6.76Z" stroke-width="2" stroke-linecap="round" stroke-linejoin="round"/>
      <path d="M16 8h-6a2 2 0 1 0 0 4h4a2 2 0 1 1 0 4H8" stroke-width="2" stroke-linecap="round" stroke-linejoin="round"/>
      <path d="M12 18V6" stroke-width="2" stroke-linecap="round" stroke-linejoin="round"/>
    </symbol>
    <symbol id="lucide-coins" viewBox="0 0 24 24">
      <circle cx="8" cy="8" r="6" stroke-width="2"/>
      <path d="M18.09 10.37A6 6 0 1 1 10.34 18" stroke-width="2" stroke-linecap="round" stroke-linejoin="round"/>
      <path d="M7 6h1v4" stroke-width="2" stroke-linecap="round" stroke-linejoin="round"/>
      <path d="m16.71 13.88.7.71-2.82 2.82" stroke-width="2" stroke-linecap="round" stroke-linejoin="round"/>
    </symbol>
    <symbol id="lucide-card" viewBox="0 0 24 24">
      <rect width="20" height="14" x="2" y="5" rx="2" stroke-width="2"/>
      <line x1="2" x2="22" y1="10" y2="10" stroke-width="2" stroke-linecap="round"/>
    </symbol>

    <symbol id="hero-down" viewBox="0 0 24 24">
      <path stroke-width="1.5" stroke-linecap="round" stroke-linejoin="round" d="M3 16.5v2.25A2.25 2.25 0 0 0 5.25 21h13.5A2.25 2.25 0 0 0 21 18.75V16.5M16.5 12 12 16.5m0 0L7.5 12m4.5 4.5V3"/>
    </symbol>
    <symbol id="hero-up" viewBox="0 0 24 24">
      <path stroke-width="1.5" stroke-linecap="round" stroke-linejoin="round" d="M3 16.5v2.25A2.25 2.25 0 0 0 5.25 21h13.5A2.25 2.25 0 0 0 21 18.75V16.5m-13.5-9L12 3m0 0 4.5 4.5M12 3v13.5"/>
    </symbol>
    <symbol id="hero-link" viewBox="0 0 24 24">
      <path stroke-width="1.5" stroke-linecap="round" stroke-linejoin="round" d="M13.19 8.688a4.5 4.5 0 0 1 1.242 7.244l-4.5 4.5a4.5 4.5 0 0 1-6.364-6.364l1.757-1.757m13.35-.622 1.757-1.757a4.5 4.5 0 0 0-6.364-6.364l-4.5 4.5a4.5 4.5 0 0 0 1.242 7.244"/>
    </symbol>
    <symbol id="hero-shield" viewBox="0 0 24 24">
      <path stroke-width="1.5" stroke-linecap="round" stroke-linejoin="round" d="M9 12.75 11.25 15 15 9.75m-3-7.036A11.959 11.959 0 0 1 3.598 6 11.99 11.99 0 0 0 3 9.749c0 5.592 3.824 10.29 9 11.623 5.176-1.332 9-6.03 9-11.622 0-1.31-.21-2.571-.598-3.751h-.152c-3.196 0-6.1-1.248-8.25-3.285Z"/>
    </symbol>
    <symbol id="hero-building" viewBox="0 0 24 24">
      <path stroke-width="1.5" stroke-linecap="round" stroke-linejoin="round" d="M2.25 21h19.5m-18-18v18m10.5-18v18m6-13.5V21M6.75 6.75h.75m-.75 3h.75m-.75 3h.75m3-6h.75m-.75 3h.75m-.75 3h.75M6.75 21v-3.375c0-.621.504-1.125 1.125-1.125h2.25c.621 0 1.125.504 1.125 1.125V21M3 3h12m-.75 4.5H21m-3.75 3.75h.008v.008h-.008v-.008Zm0 3h.008v.008h-.008v-.008Zm0 3h.008v.008h-.008v-.008Z"/>
    </symbol>
    <symbol id="hero-banknote" viewBox="0 0 24 24">
      <path stroke-width="1.5" stroke-linecap="round" stroke-linejoin="round" d="M2.25 18.75a60.07 60.07 0 0 1 15.797 2.101c.727.198 1.453-.342 1.453-1.096V18.75M3.75 4.5v.75A.75.75 0 0 1 3 6h-.75m0 0v-.375c0-.621.504-1.125 1.125-1.125H20.25M2.25 6v9m18-10.5v.75c0 .414.336.75.75.75h.75m-1.5-1.5h.375c.621 0 1.125.504 1.125 1.125v9.75c0 .621-.504 1.125-1.125 1.125h-.375m1.5-1.5H21a.75.75 0 0 0-.75.75v.75m0 0H3.75m0 0h-.375a1.125 1.125 0 0 1-1.125-1.125V15m1.5 1.5v-.75A.75.75 0 0 0 3 15h-.75M15 10.5a3 3 0 1 1-6 0 3 3 0 0 1 6 0Zm3 0h.008v.008H18V10.5Zm-12 0h.008v.008H6V10.5Z"/>
    </symbol>
    <symbol id="hero-stack" viewBox="0 0 24 24">
      <path stroke-width="1.5" stroke-linecap="round" stroke-linejoin="round" d="M20.25 6.375c0 2.278-3.694 4.125-8.25 4.125S3.75 8.653 3.75 6.375m16.5 0c0-2.278-3.694-4.125-8.25-4.125S3.75 4.097 3.75 6.375m16.5 0v11.25c0 2.278-3.694 4.125-8.25 4.125s-8.25-1.847-8.25-4.125V6.375m16.5 0v3.75m-16.5-3.75v3.75m16.5 0v3.75C20.25 16.153 16.556 18 12 18s-8.25-1.847-8.25-4.125v-3.75m16.5 0c0 2.278-3.694 4.125-8.25 4.125s-8.25-1.847-8.25-4.125"/>
    </symbol>
    <symbol id="hero-card" viewBox="0 0 24 24">
      <path stroke-width="1.5" stroke-linecap="round" stroke-linejoin="round" d="M2.25 8.25h19.5M2.25 9h19.5m-16.5 5.25h6m-6 2.25h3m-3.75 3h15a2.25 2.25 0 0 0 2.25-2.25V6.75A2.25 2.25 0 0 0 19.5 4.5h-15a2.25 2.25 0 0 0-2.25 2.25v10.5A2.25 2.25 0 0 0 4.5 19.5Z"/>
    </symbol>

    <symbol id="fa-wallet" viewBox="0 0 512 512"><path d="M64 32C28.7 32 0 60.7 0 96L0 416c0 35.3 28.7 64 64 64l384 0c35.3 0 64-28.7 64-64l0-224c0-35.3-28.7-64-64-64L80 128c-8.8 0-16-7.2-16-16s7.2-16 16-16l368 0c17.7 0 32-14.3 32-32s-14.3-32-32-32L64 32zM416 272a32 32 0 1 1 0 64 32 32 0 1 1 0-64z"/></symbol>
    <symbol id="fa-transfer" viewBox="0 0 640 512"><path d="M535 41c-9.4-9.4-9.4-24.6 0-33.9s24.6-9.4 33.9 0l64 64c4.5 4.5 7 10.6 7 17s-2.5 12.5-7 17l-64 64c-9.4 9.4-24.6 9.4-33.9 0s-9.4-24.6 0-33.9l23-23L384 112c-13.3 0-24-10.7-24-24s10.7-24 24-24l174.1 0L535 41zM105 377l-23 23L256 400c13.3 0 24 10.7 24 24s-10.7 24-24 24L81.9 448l23 23c9.4 9.4 9.4 24.6 0 33.9s-24.6 9.4-33.9 0L7 441c-4.5-4.5-7-10.6-7-17s2.5-12.5 7-17l64-64c9.4-9.4 24.6-9.4 33.9 0s9.4 24.6 0 33.9zM96 64l241.9 0c-3.7 7.2-5.9 15.3-5.9 24c0 28.7 23.3 52 52 52l117.4 0c-4 17 .6 35.5 13.8 48.8c20.3 20.3 53.2 20.3 73.5 0L608 169.5 608 384c0 35.3-28.7 64-64 64l-241.9 0c3.7-7.2 5.9-15.3 5.9-24c0-28.7-23.3-52-52-52l-117.4 0c4-17-.6-35.5-13.8-48.8c-20.3-20.3-53.2-20.3-73.5 0L32 342.5 32 128c0-35.3 28.7-64 64-64zm64 64l-64 0 0 64c35.3 0 64-28.7 64-64zM544 320c-35.3 0-64 28.7-64 64l64 0 0-64zM320 352a96 96 0 1 0 0-192 96 96 0 1 0 0 192z"/></symbol>
    <symbol id="fa-link" viewBox="0 0 640 512"><path d="M579.8 267.7c56.5-56.5 56.5-148 0-204.5c-50-50-128.8-56.5-186.3-15.4l-1.6 1.1c-14.4 10.3-17.7 30.3-7.4 44.6s30.3 17.7 44.6 7.4l1.6-1.1c32.1-22.9 76-19.3 103.8 8.6c31.5 31.5 31.5 82.5 0 114L422.3 334.8c-31.5 31.5-82.5 31.5-114 0c-27.9-27.9-31.5-71.8-8.6-103.8l1.1-1.6c10.3-14.4 6.9-34.4-7.4-44.6s-34.4-6.9-44.6 7.4l-1.1 1.6C206.5 251.2 213 330 263 380c56.5 56.5 148 56.5 204.5 0L579.8 267.7zM60.2 244.3c-56.5 56.5-56.5 148 0 204.5c50 50 128.8 56.5 186.3 15.4l1.6-1.1c14.4-10.3 17.7-30.3 7.4-44.6s-30.3-17.7-44.6-7.4l-1.6 1.1c-32.1 22.9-76 19.3-103.8-8.6C74 372 74 321 105.5 289.5L217.7 177.2c31.5-31.5 82.5-31.5 114 0c27.9 27.9 31.5 71.8 8.6 103.9l-1.1 1.6c-10.3 14.4-6.9 34.4 7.4 44.6s34.4 6.9 44.6-7.4l1.1-1.6C433.5 260.8 427 182 377 132c-56.5-56.5-148-56.5-204.5 0L60.2 244.3z"/></symbol>
    <symbol id="fa-shield" viewBox="0 0 512 512"><path d="M256 0c4.6 0 9.2 1 13.4 2.9L457.7 82.8c22 9.3 38.4 31 38.3 57.2c-.5 99.2-41.3 280.7-213.6 363.2c-16.7 8-36.1 8-52.8 0C57.3 420.7 16.5 239.2 16 140c-.1-26.2 16.3-47.9 38.3-57.2L242.7 2.9C246.8 1 251.4 0 256 0zm0 66.8l0 378.1C394 378 431.1 230.1 432 141.4L256 66.8s0 0 0 0z"/></symbol>
    <symbol id="fa-hospital" viewBox="0 0 640 512"><path d="M192 48c0-26.5 21.5-48 48-48L400 0c26.5 0 48 21.5 48 48l0 464-80 0 0-80c0-26.5-21.5-48-48-48s-48 21.5-48 48l0 80-80 0 0-464zM48 96l112 0 0 416L48 512c-26.5 0-48-21.5-48-48L0 320l80 0c8.8 0 16-7.2 16-16s-7.2-16-16-16L0 288l0-64 80 0c8.8 0 16-7.2 16-16s-7.2-16-16-16L0 192l0-48c0-26.5 21.5-48 48-48zm544 0c26.5 0 48 21.5 48 48l0 48-80 0c-8.8 0-16 7.2-16 16s7.2 16 16 16l80 0 0 64-80 0c-8.8 0-16 7.2-16 16s7.2 16 16 16l80 0 0 144c0 26.5-21.5 48-48 48l-112 0 0-416 112 0zM312 64c-8.8 0-16 7.2-16 16l0 24-24 0c-8.8 0-16 7.2-16 16l0 16c0 8.8 7.2 16 16 16l24 0 0 24c0 8.8 7.2 16 16 16l16 0c8.8 0 16-7.2 16-16l0-24 24 0c8.8 0 16-7.2 16-16l0-16c0-8.8-7.2-16-16-16l-24 0 0-24c0-8.8-7.2-16-16-16l-16 0z"/></symbol>
    <symbol id="fa-bitcoin" viewBox="0 0 512 512"><path d="M504 256c0 136.967-111.033 248-248 248S8 392.967 8 256 119.033 8 256 8s248 111.033 248 248zm-141.651-35.33c4.937-32.999-20.191-50.739-54.55-62.573l11.146-44.702-27.213-6.781-10.851 43.524c-7.154-1.783-14.502-3.464-21.803-5.13l10.929-43.81-27.198-6.781-11.153 44.686c-5.922-1.349-11.735-2.682-17.377-4.084l.031-.14-37.53-9.37-7.239 29.062s20.191 4.627 19.765 4.913c11.022 2.751 13.014 10.044 12.68 15.825l-12.696 50.925c.76.194 1.744.473 2.829.907-.907-.225-1.876-.473-2.876-.713l-17.796 71.338c-1.349 3.348-4.767 8.37-12.471 6.464.271.395-19.78-4.937-19.78-4.937l-13.51 31.147 35.414 8.827c6.588 1.651 13.045 3.379 19.4 5.006l-11.262 45.213 27.182 6.781 11.153-44.733a1038.209 1038.209 0 0 0 21.687 5.627l-11.115 44.523 27.213 6.781 11.262-45.128c46.404 8.781 81.299 5.239 95.986-36.727 11.836-33.79-.589-53.281-25.004-65.991 17.78-4.098 31.174-15.792 34.747-39.949zm-62.177 87.179c-8.41 33.79-65.308 15.523-83.755 10.943l14.944-59.899c18.446 4.603 77.6 13.717 68.811 48.956zm8.417-87.667c-7.673 30.736-55.031 15.12-70.393 11.292l13.548-54.327c15.363 3.828 64.836 10.973 56.845 43.035z"/></symbol>
    <symbol id="fa-coins" viewBox="0 0 512 512"><path d="M512 80c0 18-14.3 34.6-38.4 48c-29.1 16.1-72.5 27.5-122.3 30.9c-3.7-1.8-7.4-3.5-11.3-5C300.6 137.4 248.2 128 192 128c-8.3 0-16.4 .2-24.5 .6l-1.1-.6C142.3 114.6 128 98 128 80c0-44.2 86-80 192-80S512 35.8 512 80zM160.7 161.1c10.2-.7 20.7-1.1 31.3-1.1c62.2 0 117.4 12.3 152.5 31.4C369.3 204.9 384 221.7 384 240c0 4-.7 7.9-2.1 11.7c-4.6 13.2-17 25.3-35 35.5c0 0 0 0 0 0c-.1 .1-.3 .1-.4 .2c0 0 0 0 0 0s0 0 0 0c-.3 .2-.6 .3-.9 .5c-35 19.4-90.8 32-153.6 32c-59.6 0-112.9-11.3-148.2-29.1c-1.9-.9-3.7-1.9-5.5-2.9C14.3 274.6 0 258 0 240c0-34.8 53.4-64.5 128-75.4c10.5-1.5 21.4-2.7 32.7-3.5zM416 240c0-21.9-10.6-39.9-24.1-53.4c28.3-4.4 54.2-11.4 76.2-20.5c16.3-6.8 31.5-15.2 43.9-25.5l0 35.4c0 19.3-16.5 37.1-43.8 50.9c-14.6 7.4-32.4 13.7-52.4 18.5c.1-1.8 .2-3.5 .2-5.3zm-32 96c0 18-14.3 34.6-38.4 48c-1.8 1-3.6 1.9-5.5 2.9C304.9 404.7 251.6 416 192 416c-62.8 0-118.6-12.6-153.6-32C14.3 370.6 0 354 0 336l0-35.4c12.5 10.3 27.6 18.7 43.9 25.5C83.4 342.6 135.8 352 192 352s108.6-9.4 148.1-25.9c7.8-3.2 15.3-6.9 22.4-10.9c6.1-3.4 11.8-7.2 17.2-11.2c1.5-1.1 2.9-2.3 4.3-3.4l0 3.4 0 5.7 0 26.3zm32 0l0-32 0-25.9c19-4.2 36.5-9.5 52.1-16c16.3-6.8 31.5-15.2 43.9-25.5l0 35.4c0 10.5-5 21-14.9 30.9c-16.3 16.3-45 29.7-81.3 38.4c.1-1.7 .2-3.5 .2-5.3zM192 448c56.2 0 108.6-9.4 148.1-25.9c16.3-6.8 31.5-15.2 43.9-25.5l0 35.4c0 44.2-86 80-192 80S0 476.2 0 432l0-35.4c12.5 10.3 27.6 18.7 43.9 25.5C83.4 438.6 135.8 448 192 448z"/></symbol>
    <symbol id="fa-card" viewBox="0 0 576 512"><path d="M512 80c8.8 0 16 7.2 16 16l0 32L48 128l0-32c0-8.8 7.2-16 16-16l448 0zm16 144l0 192c0 8.8-7.2 16-16 16L64 432c-8.8 0-16-7.2-16-16l0-192 480 0zM64 32C28.7 32 0 60.7 0 96L0 416c0 35.3 28.7 64 64 64l448 0c35.3 0 64-28.7 64-64l0-320c0-35.3-28.7-64-64-64L64 32zm56 304c-13.3 0-24 10.7-24 24s10.7 24 24 24l48 0c13.3 0 24-10.7 24-24s-10.7-24-24-24l-48 0zm128 0c-13.3 0-24 10.7-24 24s10.7 24 24 24l112 0c13.3 0 24-10.7 24-24s-10.7-24-24-24l-112 0z"/></symbol>
  </defs>

  <rect class="bg" width="1200" height="760"/>
  <rect x="40" y="32" width="1120" height="696" rx="24" fill="#071421" stroke="rgba(201,168,76,.16)"/>
  <text x="72" y="82" class="title">Dashboard icon options</text>
  <text x="72" y="112" class="sub">Pick a style: A is clean and modern, B matches most of the existing app, C is heavier and more fintech-branded.</text>

  <g transform="translate(72 152)">
    <rect class="panel" width="1056" height="150" rx="18"/>
    <text x="24" y="38" class="choice">A</text>
    <text x="54" y="38" class="label">Lucide React</text>
    <text x="54" y="62" class="note">Clean rounded stroke. My recommendation for a more professional mobile-dashboard feel.</text>
    <g transform="translate(40 82)">
      <g transform="translate(0 0)"><rect class="badge" width="76" height="52" rx="12"/><use href="#lucide-download" class="gold" x="26" y="8" width="24" height="24"/><text class="icon-label" x="38" y="45">Deposit</text></g>
      <g transform="translate(122 0)"><rect class="badge" width="76" height="52" rx="12"/><use href="#lucide-upload" class="gold" x="26" y="8" width="24" height="24"/><text class="icon-label" x="38" y="45">Receive</text></g>
      <g transform="translate(244 0)"><rect class="badge" width="76" height="52" rx="12"/><use href="#lucide-link" class="gold" x="26" y="8" width="24" height="24"/><text class="icon-label" x="38" y="45">Link</text></g>
      <g transform="translate(366 0)"><rect class="badge" width="76" height="52" rx="12"/><use href="#lucide-badge-check" class="gold" x="26" y="8" width="24" height="24"/><text class="icon-label" x="38" y="45">Verify</text></g>
      <g transform="translate(488 0)"><rect class="badge" width="76" height="52" rx="12"/><use href="#lucide-hospital" class="gold" x="26" y="8" width="24" height="24"/><text class="icon-label" x="38" y="45">Medbed</text></g>
      <g transform="translate(610 0)"><rect class="badge" width="76" height="52" rx="12"/><use href="#lucide-dollar" class="gold" x="26" y="8" width="24" height="24"/><text class="icon-label" x="38" y="45">Buy</text></g>
      <g transform="translate(732 0)"><rect class="badge" width="76" height="52" rx="12"/><use href="#lucide-coins" class="gold" x="26" y="8" width="24" height="24"/><text class="icon-label" x="38" y="45">Staking</text></g>
      <g transform="translate(854 0)"><rect class="badge" width="76" height="52" rx="12"/><use href="#lucide-card" class="gold" x="26" y="8" width="24" height="24"/><text class="icon-label" x="38" y="45">Card</text></g>
    </g>
  </g>

  <g transform="translate(72 332)">
    <rect class="panel" width="1056" height="150" rx="18"/>
    <text x="24" y="38" class="choice">B</text>
    <text x="54" y="38" class="label">Heroicons Outline</text>
    <text x="54" y="62" class="note">Elegant, thinner, and already used across this project. Best if you want visual consistency.</text>
    <g transform="translate(40 82)">
      <g transform="translate(0 0)"><rect class="badge" width="76" height="52" rx="12"/><use href="#hero-down" class="gold" x="26" y="8" width="24" height="24"/><text class="icon-label" x="38" y="45">Deposit</text></g>
      <g transform="translate(122 0)"><rect class="badge" width="76" height="52" rx="12"/><use href="#hero-up" class="gold" x="26" y="8" width="24" height="24"/><text class="icon-label" x="38" y="45">Receive</text></g>
      <g transform="translate(244 0)"><rect class="badge" width="76" height="52" rx="12"/><use href="#hero-link" class="gold" x="26" y="8" width="24" height="24"/><text class="icon-label" x="38" y="45">Link</text></g>
      <g transform="translate(366 0)"><rect class="badge" width="76" height="52" rx="12"/><use href="#hero-shield" class="gold" x="26" y="8" width="24" height="24"/><text class="icon-label" x="38" y="45">Verify</text></g>
      <g transform="translate(488 0)"><rect class="badge" width="76" height="52" rx="12"/><use href="#hero-building" class="gold" x="26" y="8" width="24" height="24"/><text class="icon-label" x="38" y="45">Medbed</text></g>
      <g transform="translate(610 0)"><rect class="badge" width="76" height="52" rx="12"/><use href="#hero-banknote" class="gold" x="26" y="8" width="24" height="24"/><text class="icon-label" x="38" y="45">Buy</text></g>
      <g transform="translate(732 0)"><rect class="badge" width="76" height="52" rx="12"/><use href="#hero-stack" class="gold" x="26" y="8" width="24" height="24"/><text class="icon-label" x="38" y="45">Staking</text></g>
      <g transform="translate(854 0)"><rect class="badge" width="76" height="52" rx="12"/><use href="#hero-card" class="gold" x="26" y="8" width="24" height="24"/><text class="icon-label" x="38" y="45">Card</text></g>
    </g>
  </g>

  <g transform="translate(72 512)">
    <rect class="panel" width="1056" height="150" rx="18"/>
    <text x="24" y="38" class="choice">C</text>
    <text x="54" y="38" class="label">React Icons, Font Awesome 6</text>
    <text x="54" y="62" class="note">Bolder filled icons. Strong and readable, but can feel heavier inside small dashboard buttons.</text>
    <g transform="translate(40 82)">
      <g transform="translate(0 0)"><rect class="badge" width="76" height="52" rx="12"/><use href="#fa-wallet" class="gold-fill" x="25" y="8" width="26" height="26"/><text class="icon-label" x="38" y="45">Deposit</text></g>
      <g transform="translate(122 0)"><rect class="badge" width="76" height="52" rx="12"/><use href="#fa-transfer" class="gold-fill" x="25" y="8" width="26" height="26"/><text class="icon-label" x="38" y="45">Receive</text></g>
      <g transform="translate(244 0)"><rect class="badge" width="76" height="52" rx="12"/><use href="#fa-link" class="gold-fill" x="25" y="8" width="26" height="26"/><text class="icon-label" x="38" y="45">Link</text></g>
      <g transform="translate(366 0)"><rect class="badge" width="76" height="52" rx="12"/><use href="#fa-shield" class="gold-fill" x="25" y="8" width="26" height="26"/><text class="icon-label" x="38" y="45">Verify</text></g>
      <g transform="translate(488 0)"><rect class="badge" width="76" height="52" rx="12"/><use href="#fa-hospital" class="gold-fill" x="25" y="8" width="26" height="26"/><text class="icon-label" x="38" y="45">Medbed</text></g>
      <g transform="translate(610 0)"><rect class="badge" width="76" height="52" rx="12"/><use href="#fa-bitcoin" class="gold-fill" x="25" y="8" width="26" height="26"/><text class="icon-label" x="38" y="45">Buy</text></g>
      <g transform="translate(732 0)"><rect class="badge" width="76" height="52" rx="12"/><use href="#fa-coins" class="gold-fill" x="25" y="8" width="26" height="26"/><text class="icon-label" x="38" y="45">Staking</text></g>
      <g transform="translate(854 0)"><rect class="badge" width="76" height="52" rx="12"/><use href="#fa-card" class="gold-fill" x="25" y="8" width="26" height="26"/><text class="icon-label" x="38" y="45">Card</text></g>
    </g>
  </g>
</svg>
