<svg xmlns="http://www.w3.org/2000/svg" viewBox="0 0 64 64" width="64" height="64">
  <defs>
    <linearGradient id="g" x1="0" x2="1">
      <stop offset="0" stop-color="#f79e1b"/>
      <stop offset="1" stop-color="#f2a900"/>
    </linearGradient>
  </defs>
  <circle cx="32" cy="32" r="30" fill="url(#g)" />
  <path d="M39.9 27.1c1.7-4.8-2.1-7.4-6.9-9.1l1.4-5.6-3.5-.9-1.4 5.5c-0.9-.2-1.8-.4-2.7-.6l1.4-5.6-3.5-.9-1.4 5.6c-.8-.1-1.6-.3-2.3-.4l.01.03-4.9-1.3-.9 3.6s2.7.6 2.6.7c1.4.4 1.7 1.3 1.6 2.1l-1.6 6.4c.1 0 .3-.1.5-.1l-1.1 4.3c-.1.3-.4.8-1 1-0.2.1-.5.2-1 .3.2.5.7 1 1.8 1.1l.6.2-1.1 4.4 3.5.9 1.1-4.3c.7.2 1.5.4 2.3.6l-1.1 4.4 3.5.9 1.1-4.4c6.4 1.3 11.2.8 13.2-5 1.6-4.8-.1-7.5-4.2-9.3 2.9-0.7 5.1-2.7 5.7-6zM32.6 25.2c1.7.4 3 1.1 2.4 3-0.6 1.9-2.6 2.5-4.3 2.1-1.7-.4-3-1.1-2.4-3 .6-1.8 2.6-2.5 4.3-2.1zm1.8 11.7c-1.8-.4-3.3.3-3.9 2.2-.6 1.9.6 3.1 2.4 3.6 1.8.4 3.3-.4 3.9-2.2.6-1.9-.6-3.1-2.4-3.6z" fill="#fff"/>
</svg>